<svg xmlns="http://www.w3.org/2000/svg" viewBox="0 0 3500 1803"><defs><style>.cls-1{fill:#fff;fill-opacity:0.7;}</style></defs><title>cheratte</title><g id="Layer_2" data-name="Layer 2"><rect class="cls-1" width="3500" height="1803"/></g><g id="Layer_3" data-name="Layer 3"><path d="M66.87,329.31v6.2H19.17v-71H66v6.2H26.17v25.6h34.7v5.9H26.17v27.1Z" transform="translate(1452 480.11)"/><path d="M108.86,329.71A22.17,22.17,0,0,0,120,327.16a20.17,20.17,0,0,0,7.1-6.7,27.2,27.2,0,0,0,3.7-9.45,54.91,54.91,0,0,0,1.05-10.7v-35.8h7v35.8a56.59,56.59,0,0,1-1.6,13.65,32.46,32.46,0,0,1-5.15,11.35,25.47,25.47,0,0,1-9.25,7.8A30.39,30.39,0,0,1,109,336a29.9,29.9,0,0,1-14.15-3,25.84,25.84,0,0,1-9.25-8.05,32.62,32.62,0,0,1-5-11.4,57.64,57.64,0,0,1-1.5-13.2v-35.8H86v35.8a53.42,53.42,0,0,0,1.1,10.9,27.37,27.37,0,0,0,3.75,9.4,20,20,0,0,0,7.05,6.6A22,22,0,0,0,108.86,329.71Z" transform="translate(1452 480.11)"/><path d="M155.56,335.51v-71h30a18.43,18.43,0,0,1,8.45,2,22.29,22.29,0,0,1,6.65,5.1,23.44,23.44,0,0,1,4.35,7.15,22.27,22.27,0,0,1,1.55,8.1,24.05,24.05,0,0,1-1.15,7.45,23.06,23.06,0,0,1-3.2,6.4,19.38,19.38,0,0,1-4.95,4.8,17.5,17.5,0,0,1-6.5,2.65l17.4,27.4h-7.9l-16.7-26.2h-21v26.2Zm7-32.4h23.2a11.89,11.89,0,0,0,5.65-1.35,13.47,13.47,0,0,0,4.35-3.65,17.75,17.75,0,0,0,2.8-5.2,18.6,18.6,0,0,0,1-6.1,16.81,16.81,0,0,0-1.15-6.15,17,17,0,0,0-3.1-5.15,14.83,14.83,0,0,0-4.6-3.5,12.46,12.46,0,0,0-5.55-1.3h-22.6Z" transform="translate(1452 480.11)"/><path d="M219,264.51l23.2,38.2,23.4-38.2h7.6l-27.5,44.6v26.4h-7v-26.6l-27.4-44.4Z" transform="translate(1452 480.11)"/><path d="M334.06,270.71h-25.3v64.8h-7v-64.8h-25.3v-6.2h57.6Z" transform="translate(1452 480.11)"/><path d="M400.66,264.51v71h-6.9v-33.2h-42.1v33.2h-7v-71h7v31.6h42.1v-31.6Z" transform="translate(1452 480.11)"/><path d="M481.36,335.51v-58.3l-25.9,45.1h-4.1l-25.9-45.1v58.3h-7v-71h7.2l27.7,48.6,27.9-48.6h7.1v71Z" transform="translate(1452 480.11)"/><path d="M506.16,335.51v-71h7v71Z" transform="translate(1452 480.11)"/><path d="M578.66,329.31v6.2H531v-71h46.8v6.2H538v25.6h34.7v5.9H538v27.1Z" transform="translate(1452 480.11)"/><path d="M227.3,529.84a31.52,31.52,0,0,1,.36-4.5,16.84,16.84,0,0,1,1.62-5,18.92,18.92,0,0,1,3.67-5,23.38,23.38,0,0,1,6.44-4.36q2-1,4.32-2a25.64,25.64,0,0,0,4.25-2.34,13.6,13.6,0,0,0,3.24-3.06,6.76,6.76,0,0,0,1.3-4.18,7,7,0,0,0-.65-2.88,7.91,7.91,0,0,0-1.91-2.59,9.67,9.67,0,0,0-3.2-1.87,14.52,14.52,0,0,0-9,0,15.44,15.44,0,0,0-3.46,1.73,15.76,15.76,0,0,0-2.45,2,18.85,18.85,0,0,0-1.4,1.58l-2.45-2.52,1.4-1.4a17.52,17.52,0,0,1,3-2.3,23.87,23.87,0,0,1,4.5-2.16,16.83,16.83,0,0,1,5.87-1,17.4,17.4,0,0,1,5.8.9,13.07,13.07,0,0,1,4.32,2.45,10.24,10.24,0,0,1,2.66,3.6,10.56,10.56,0,0,1,.9,4.28,9,9,0,0,1-1.44,5.11,16,16,0,0,1-3.53,3.78,23.83,23.83,0,0,1-4.36,2.7q-2.27,1.08-3.92,1.8a24.25,24.25,0,0,0-8.6,5.65,12.32,12.32,0,0,0-3.13,8.24h25.78v3.31Z" transform="translate(1452 480.11)"/><path d="M300.52,508.74a27.53,27.53,0,0,1-1.33,8.75,21.29,21.29,0,0,1-3.74,6.91,17.26,17.26,0,0,1-5.69,4.54,16.65,16.65,0,0,1-14.33,0,16.87,16.87,0,0,1-5.65-4.54,21.65,21.65,0,0,1-3.71-6.91,29.39,29.39,0,0,1,0-17.5,21.66,21.66,0,0,1,3.71-6.91,17.28,17.28,0,0,1,5.65-4.57,16.32,16.32,0,0,1,14.33,0,17.69,17.69,0,0,1,5.69,4.57,21.29,21.29,0,0,1,3.74,6.91A27.53,27.53,0,0,1,300.52,508.74Zm-3.67,0a25.71,25.71,0,0,0-1-7.52,18,18,0,0,0-2.92-5.83,13.61,13.61,0,0,0-4.5-3.78,13,13,0,0,0-11.59,0,13.59,13.59,0,0,0-4.5,3.78,17.94,17.94,0,0,0-2.92,5.83,25.67,25.67,0,0,0-1,7.52,25.31,25.31,0,0,0,1,7.49,18.4,18.4,0,0,0,2.92,5.83,13,13,0,0,0,4.5,3.78,13.28,13.28,0,0,0,11.59,0,13,13,0,0,0,4.5-3.78,18.45,18.45,0,0,0,2.92-5.83A25.34,25.34,0,0,0,296.85,508.74Z" transform="translate(1452 480.11)"/><path d="M332.49,526.53v3.31h-23v-3.31h10.22V493.26a9.8,9.8,0,0,1-2,1.87,23.41,23.41,0,0,1-3.1,1.91,25.07,25.07,0,0,1-3.53,1.51,10.18,10.18,0,0,1-3.24.61v-3.6a8.82,8.82,0,0,0,3.82-1,27.75,27.75,0,0,0,3.78-2.2,25.72,25.72,0,0,0,3-2.34,15,15,0,0,0,1.33-1.33h3.6v37.8Z" transform="translate(1452 480.11)"/><path d="M364.31,491.25H335.58v-3.38h34.49l-26,51.12H340Z" transform="translate(1452 480.11)"/><path d="M109.43,618.59V574.38L89.27,608.87H87L66.81,574.38v44.21H63.14V567.47h3.67L88.12,604l21.31-36.58h3.67v51.12Z" transform="translate(1452 480.11)"/><path d="M134.27,619.31a12.84,12.84,0,0,1-8.75-3.35,10.82,10.82,0,0,1-2.63-3.67,11.2,11.2,0,0,1-.94-4.57,8.84,8.84,0,0,1,1.15-4.46,11.06,11.06,0,0,1,3.2-3.49,15.94,15.94,0,0,1,4.93-2.3,22.91,22.91,0,0,1,6.34-.83,35,35,0,0,1,6.08.54,30.11,30.11,0,0,1,5.51,1.48V595a11.67,11.67,0,0,0-3-8.46,10.88,10.88,0,0,0-8.21-3.13,16.47,16.47,0,0,0-5.8,1.15,29.73,29.73,0,0,0-6.23,3.31l-1.37-2.45q7.2-4.9,13.68-4.9,6.77,0,10.66,3.92t3.89,10.84v18.29q0,1.8,1.58,1.8v3.24c-.24,0-.49.08-.76.11s-.49,0-.68,0a2.93,2.93,0,0,1-2.3-1,4.07,4.07,0,0,1-1-2.34v-3.1a16.82,16.82,0,0,1-6.62,5.18A21.14,21.14,0,0,1,134.27,619.31Zm.72-2.88a18.34,18.34,0,0,0,7.67-1.58,13.09,13.09,0,0,0,5.36-4.18,4.83,4.83,0,0,0,1.15-2.88v-6.62a29,29,0,0,0-5.4-1.51,33,33,0,0,0-5.83-.5,19.93,19.93,0,0,0-5.11.61,13.62,13.62,0,0,0-4,1.69,7.83,7.83,0,0,0-2.56,2.63,6.68,6.68,0,0,0-.9,3.42,8.75,8.75,0,0,0,.72,3.53,8.29,8.29,0,0,0,2,2.84,9.62,9.62,0,0,0,3.06,1.87A10.34,10.34,0,0,0,135,616.43Z" transform="translate(1452 480.11)"/><path d="M175.6,619.31a24,24,0,0,1-8.28-1.44,19.12,19.12,0,0,1-6.91-4.32l1.8-2.45a21,21,0,0,0,6.26,4,19,19,0,0,0,7.13,1.3,13.68,13.68,0,0,0,7.88-2.05,6.56,6.56,0,0,0,3-5.72,5.32,5.32,0,0,0-.76-2.92,6.06,6.06,0,0,0-2.27-2,18.79,18.79,0,0,0-3.74-1.48q-2.23-.65-5.18-1.37-3.17-.72-5.51-1.44a14.75,14.75,0,0,1-3.85-1.73,6.65,6.65,0,0,1-2.27-2.45,7.86,7.86,0,0,1-.76-3.67,10.52,10.52,0,0,1,1.08-4.9,9.65,9.65,0,0,1,3-3.46,13.71,13.71,0,0,1,4.39-2.05,19.85,19.85,0,0,1,5.29-.68,19.3,19.3,0,0,1,7.78,1.48,13.65,13.65,0,0,1,5.26,3.78l-2,1.94a11.42,11.42,0,0,0-4.86-3.24,18.61,18.61,0,0,0-6.37-1.08,17.09,17.09,0,0,0-3.92.43,9.46,9.46,0,0,0-3.2,1.37,6.75,6.75,0,0,0-2.16,2.41,7.28,7.28,0,0,0-.79,3.49,5.65,5.65,0,0,0,.54,2.66,4.58,4.58,0,0,0,1.73,1.73,12.81,12.81,0,0,0,3.06,1.26q1.87.54,4.46,1.19,3.53.86,6.26,1.66a18.09,18.09,0,0,1,4.57,1.94,8.54,8.54,0,0,1,2.81,2.74,7.61,7.61,0,0,1,1,4,9.57,9.57,0,0,1-3.92,8Q182.15,619.31,175.6,619.31Z" transform="translate(1452 480.11)"/><path d="M215.06,616.79q-.29.15-1,.54a9.94,9.94,0,0,1-1.73.76,21.15,21.15,0,0,1-2.34.65,13,13,0,0,1-2.81.29,9.16,9.16,0,0,1-2.84-.43,6.74,6.74,0,0,1-2.34-1.3,6.16,6.16,0,0,1-1.58-2.09,6.69,6.69,0,0,1-.58-2.88V584.1h-5.26v-3h5.26V568.34h3.6v12.82h8.71v3h-8.71v27.36a3.61,3.61,0,0,0,1.44,3.13,5.38,5.38,0,0,0,3.24,1,9,9,0,0,0,3.85-.76q1.62-.76,2-1Z" transform="translate(1452 480.11)"/><path d="M236.37,619.31a17.44,17.44,0,0,1-7.34-1.55,18.12,18.12,0,0,1-5.87-4.25,20.19,20.19,0,0,1-5.29-13.79,19.85,19.85,0,0,1,5.26-13.57,17.91,17.91,0,0,1,5.8-4.14,18.13,18.13,0,0,1,14.58,0,18.28,18.28,0,0,1,5.83,4.18,19.13,19.13,0,0,1,3.82,6.12,20.07,20.07,0,0,1,1.37,7.38v.9a2,2,0,0,1-.07.68H221.61a16.69,16.69,0,0,0,1.51,6,17.07,17.07,0,0,0,3.28,4.79,14.73,14.73,0,0,0,4.57,3.17,13.48,13.48,0,0,0,5.54,1.15,13.69,13.69,0,0,0,3.82-.54,15.55,15.55,0,0,0,3.49-1.48,12.61,12.61,0,0,0,2.88-2.27,10.64,10.64,0,0,0,2-2.92l3.17.86a11.92,11.92,0,0,1-2.34,3.71,15.82,15.82,0,0,1-3.6,2.92,18.32,18.32,0,0,1-4.5,1.91A18.64,18.64,0,0,1,236.37,619.31Zm14.69-20.88a17,17,0,0,0-1.48-6,16.19,16.19,0,0,0-3.24-4.72,14.56,14.56,0,0,0-4.57-3.1,14.33,14.33,0,0,0-11.09,0,14.54,14.54,0,0,0-4.57,3.1,15,15,0,0,0-3.17,4.75,18.23,18.23,0,0,0-1.4,6Z" transform="translate(1452 480.11)"/><path d="M280.15,584.39A14.71,14.71,0,0,0,266,595.19v23.4h-3.6V581.15h3.46v9.22a18.08,18.08,0,0,1,5.15-6.44,13.18,13.18,0,0,1,6.88-2.84c.48,0,.91-.07,1.3-.07h.94Z" transform="translate(1452 480.11)"/><path d="M326,615.28v3.31H303v-3.31h10.22V582a9.78,9.78,0,0,1-2,1.87,23.41,23.41,0,0,1-3.1,1.91,25.07,25.07,0,0,1-3.53,1.51,10.16,10.16,0,0,1-3.24.61v-3.6a8.81,8.81,0,0,0,3.82-1,27.74,27.74,0,0,0,3.78-2.2,25.94,25.94,0,0,0,3-2.34,15.33,15.33,0,0,0,1.33-1.33h3.6v37.8Z" transform="translate(1452 480.11)"/><path d="M350.85,600.66v-3.31h20.74v3.31Z" transform="translate(1452 480.11)"/><path d="M422.13,615.57a17.22,17.22,0,0,0,8.6-1.94,15,15,0,0,0,5.4-5.11,21.68,21.68,0,0,0,2.81-7.2,40.37,40.37,0,0,0,.83-8.14v-25.7h3.67v25.7a42.11,42.11,0,0,1-1.12,9.79,23.62,23.62,0,0,1-3.64,8.24,18.05,18.05,0,0,1-6.55,5.65,24.79,24.79,0,0,1-20.16-.11,18.25,18.25,0,0,1-6.59-5.83,23.72,23.72,0,0,1-3.53-8.24,42.8,42.8,0,0,1-1-9.5v-25.7h3.67v25.7a41.07,41.07,0,0,0,.83,8.28,20.42,20.42,0,0,0,2.88,7.16,15.44,15.44,0,0,0,5.44,5A17.11,17.11,0,0,0,422.13,615.57Z" transform="translate(1452 480.11)"/><path d="M456,618.59V567.47h3.67v47.81h30.53v3.31Z" transform="translate(1452 480.11)"/><path d="M532.28,610.6Q524.87,619,515.08,619a21,21,0,0,1-9.61-2.23,24.47,24.47,0,0,1-7.6-5.9,28.1,28.1,0,0,1-5-8.35,26.27,26.27,0,0,1-1.8-9.5,27.32,27.32,0,0,1,1.76-9.72,27,27,0,0,1,4.9-8.28,23.55,23.55,0,0,1,7.45-5.72,21.09,21.09,0,0,1,9.43-2.12,26.36,26.36,0,0,1,6.88.83,20.89,20.89,0,0,1,5.47,2.3,17.55,17.55,0,0,1,4.18,3.53,21.9,21.9,0,0,1,3,4.5l-3,1.8a16.46,16.46,0,0,0-6.88-7.31,20.38,20.38,0,0,0-9.68-2.27,17.26,17.26,0,0,0-8.21,1.94,20.24,20.24,0,0,0-6.26,5.11,22.85,22.85,0,0,0-4,7.2,25.58,25.58,0,0,0-1.37,8.28,23.65,23.65,0,0,0,5.94,15.77,21.18,21.18,0,0,0,6.52,4.93,18.07,18.07,0,0,0,8.06,1.84,19.24,19.24,0,0,0,8.89-2.16,26.49,26.49,0,0,0,8.1-6.84V596.7H520.69v-3h14.76v24.84h-3.17Z" transform="translate(1452 480.11)"/><path d="M54.83,687.81a11.48,11.48,0,0,0,5.74-1.3,10,10,0,0,0,3.6-3.41,14.45,14.45,0,0,0,1.87-4.8,26.91,26.91,0,0,0,.55-5.42V655.75H69v17.14a28.08,28.08,0,0,1-.74,6.53,15.75,15.75,0,0,1-2.42,5.5,12,12,0,0,1-4.37,3.77,14.28,14.28,0,0,1-6.62,1.39,14.32,14.32,0,0,1-6.82-1.46,12.16,12.16,0,0,1-4.39-3.89,15.83,15.83,0,0,1-2.35-5.5,28.58,28.58,0,0,1-.7-6.34V655.75h2.45v17.14a27.36,27.36,0,0,0,.55,5.52,13.61,13.61,0,0,0,1.92,4.78,10.3,10.3,0,0,0,3.62,3.36A11.41,11.41,0,0,0,54.83,687.81Z" transform="translate(1452 480.11)"/><path d="M88.53,667a9.8,9.8,0,0,0-9.41,7.2v15.6h-2.4v-25H79V671a12.06,12.06,0,0,1,3.43-4.3,8.79,8.79,0,0,1,4.58-1.9q.48,0,.86,0h.62Z" transform="translate(1452 480.11)"/><path d="M104.75,690.31a10.4,10.4,0,0,1-5.47-1.54,11.43,11.43,0,0,1-4-3.94v5H93.09v-35h2.4v15.5a15.72,15.72,0,0,1,4.2-4.22,9.78,9.78,0,0,1,5.59-1.63,10.08,10.08,0,0,1,4.78,1.13,11.25,11.25,0,0,1,3.6,3,13.86,13.86,0,0,1,2.26,4.18,14.58,14.58,0,0,1,.79,4.73,13.38,13.38,0,0,1-.91,4.92,13,13,0,0,1-2.52,4.08,12.45,12.45,0,0,1-3.79,2.81A10.73,10.73,0,0,1,104.75,690.31Zm-.48-2.16a8.9,8.9,0,0,0,4-.91,10.17,10.17,0,0,0,3.14-2.42,11.49,11.49,0,0,0,2.06-3.43,10.81,10.81,0,0,0,.74-3.94,12,12,0,0,0-.7-4.06,11.16,11.16,0,0,0-2-3.46,9.89,9.89,0,0,0-3-2.42,8.25,8.25,0,0,0-3.86-.91,8,8,0,0,0-3,.55,10.48,10.48,0,0,0-2.57,1.46,12,12,0,0,0-2.11,2.11,13.76,13.76,0,0,0-1.56,2.5v8.26a5.22,5.22,0,0,0,1.06,2.62,9.42,9.42,0,0,0,2.18,2.11,11.52,11.52,0,0,0,2.76,1.42A8.33,8.33,0,0,0,104.27,688.14Z" transform="translate(1452 480.11)"/><path d="M128.61,690.31a8.56,8.56,0,0,1-5.83-2.23,7.22,7.22,0,0,1-1.75-2.45,7.46,7.46,0,0,1-.62-3,5.89,5.89,0,0,1,.77-3,7.36,7.36,0,0,1,2.14-2.33,10.59,10.59,0,0,1,3.29-1.54,15.24,15.24,0,0,1,4.22-.55,23.28,23.28,0,0,1,4.06.36,20.08,20.08,0,0,1,3.67,1v-2.45a7.78,7.78,0,0,0-2-5.64,7.25,7.25,0,0,0-5.47-2.09,11,11,0,0,0-3.86.77,19.76,19.76,0,0,0-4.15,2.21l-.91-1.63a16.38,16.38,0,0,1,9.12-3.26,9.55,9.55,0,0,1,7.1,2.62,9.82,9.82,0,0,1,2.59,7.22v12.19q0,1.2,1.06,1.2v2.16l-.5.07-.46,0a2,2,0,0,1-1.54-.65,2.71,2.71,0,0,1-.67-1.56v-2.06a11.21,11.21,0,0,1-4.42,3.46A14.09,14.09,0,0,1,128.61,690.31Zm.48-1.92a12.23,12.23,0,0,0,5.11-1.06,8.74,8.74,0,0,0,3.58-2.78,3.22,3.22,0,0,0,.77-1.92v-4.42a19.29,19.29,0,0,0-3.6-1,22,22,0,0,0-3.89-.34,13.24,13.24,0,0,0-3.41.41A9,9,0,0,0,125,678.4a5.21,5.21,0,0,0-1.7,1.75,4.45,4.45,0,0,0-.6,2.28,5.83,5.83,0,0,0,.48,2.35,5.52,5.52,0,0,0,1.34,1.9,6.4,6.4,0,0,0,2,1.25A6.89,6.89,0,0,0,129.09,688.39Z" transform="translate(1452 480.11)"/><path d="M168.64,689.83h-2.4V675.91q0-4.85-1.37-7.06a4.73,4.73,0,0,0-4.34-2.21,9,9,0,0,0-3.14.58,10.65,10.65,0,0,0-2.9,1.63,11.94,11.94,0,0,0-2.35,2.47,10.17,10.17,0,0,0-1.49,3v15.46h-2.4v-25h2.26v6a11.73,11.73,0,0,1,1.9-2.62,12,12,0,0,1,2.54-2,12.82,12.82,0,0,1,3-1.3,11.75,11.75,0,0,1,3.26-.46q4.08,0,5.76,2.86t1.68,8.18Z" transform="translate(1452 480.11)"/><path d="M175.89,659.2v-4.42h2.4v4.42Zm0,30.62v-25h2.4v25Z" transform="translate(1452 480.11)"/><path d="M193.74,690.31a16,16,0,0,1-5.52-1,12.75,12.75,0,0,1-4.61-2.88l1.2-1.63a14,14,0,0,0,4.18,2.69,12.68,12.68,0,0,0,4.75.86A9.12,9.12,0,0,0,199,687a4.37,4.37,0,0,0,2-3.82,3.55,3.55,0,0,0-.5-1.94,4,4,0,0,0-1.51-1.34,12.54,12.54,0,0,0-2.5-1Q195,678.5,193,678t-3.67-1a9.84,9.84,0,0,1-2.57-1.15,4.45,4.45,0,0,1-1.51-1.63,5.25,5.25,0,0,1-.5-2.45,7,7,0,0,1,.72-3.26,6.43,6.43,0,0,1,2-2.3,9.16,9.16,0,0,1,2.93-1.37,13.25,13.25,0,0,1,3.53-.46,12.87,12.87,0,0,1,5.18,1,9.1,9.1,0,0,1,3.5,2.52l-1.34,1.3a7.62,7.62,0,0,0-3.24-2.16,12.39,12.39,0,0,0-4.25-.72,11.43,11.43,0,0,0-2.62.29,6.32,6.32,0,0,0-2.14.91,4.49,4.49,0,0,0-1.44,1.61,4.85,4.85,0,0,0-.53,2.33,3.76,3.76,0,0,0,.36,1.78,3,3,0,0,0,1.15,1.15,8.52,8.52,0,0,0,2,.84q1.25.36,3,.79,2.35.58,4.18,1.1a12.07,12.07,0,0,1,3,1.3,5.68,5.68,0,0,1,1.87,1.82,5.07,5.07,0,0,1,.65,2.69,6.38,6.38,0,0,1-2.62,5.35A11.24,11.24,0,0,1,193.74,690.31Z" transform="translate(1452 480.11)"/><path d="M245.58,689.83h-2.4V675.91q0-4.75-1.46-7a5,5,0,0,0-4.49-2.26,7.58,7.58,0,0,0-2.93.58,8.86,8.86,0,0,0-2.54,1.61,10.34,10.34,0,0,0-2,2.45,12.85,12.85,0,0,0-1.32,3.14v15.41H226V675.91q0-4.8-1.44-7a4.94,4.94,0,0,0-4.46-2.23,7.68,7.68,0,0,0-2.9.55,8.56,8.56,0,0,0-2.52,1.58,11.38,11.38,0,0,0-2,2.45,11.81,11.81,0,0,0-1.37,3.14v15.46h-2.4v-25h2.26v6a12.15,12.15,0,0,1,4-4.7,9.67,9.67,0,0,1,5.52-1.68,7.15,7.15,0,0,1,5.14,1.87,7.89,7.89,0,0,1,2.35,4.9q3.55-6.77,9.79-6.77,4.08,0,5.83,2.9t1.75,8.14Z" transform="translate(1452 480.11)"/><path d="M264.64,677.87v-2.21h13.82v2.21Z" transform="translate(1452 480.11)"/><path d="M307.7,655.75h2.11l14.4,34.08h-2.59l-4.75-11.23H300.59l-4.75,11.23H293.2Zm8.5,20.83-7.44-17.86-7.58,17.86Z" transform="translate(1452 480.11)"/><path d="M340.48,667a9.8,9.8,0,0,0-9.41,7.2v15.6h-2.4v-25H331V671a12.06,12.06,0,0,1,3.43-4.3,8.8,8.8,0,0,1,4.58-1.9q.48,0,.86,0h.62Z" transform="translate(1452 480.11)"/><path d="M342.06,677.25a13.68,13.68,0,0,1,.91-5,12.38,12.38,0,0,1,2.54-4.08,12,12,0,0,1,8.83-3.74,11.55,11.55,0,0,1,6,1.54,9.67,9.67,0,0,1,3.89,4.27l-2.35.77a8.08,8.08,0,0,0-3.14-3.24,8.84,8.84,0,0,0-4.49-1.18,9.09,9.09,0,0,0-3.84.82,9.58,9.58,0,0,0-3.1,2.26,10.81,10.81,0,0,0-2.09,3.38,11.65,11.65,0,0,0,2.14,11.9,10,10,0,0,0,3.12,2.33,8.7,8.7,0,0,0,3.82.86,8.82,8.82,0,0,0,2.57-.38,11.08,11.08,0,0,0,2.35-1,8.09,8.09,0,0,0,1.87-1.46,4.57,4.57,0,0,0,1.08-1.75l2.35.67a7.8,7.8,0,0,1-1.46,2.42,9.85,9.85,0,0,1-2.33,1.94,11.84,11.84,0,0,1-3,1.27,12.44,12.44,0,0,1-3.36.46,11.63,11.63,0,0,1-4.9-1,12.12,12.12,0,0,1-3.91-2.83,13.46,13.46,0,0,1-3.53-9.19Z" transform="translate(1452 480.11)"/><path d="M390.35,689.83H388V675.91q0-9.26-6.19-9.26a8.13,8.13,0,0,0-3,.58,10,10,0,0,0-2.74,1.63,11.79,11.79,0,0,0-2.23,2.47,10.83,10.83,0,0,0-1.44,3v15.46H370v-35h2.4v16a12,12,0,0,1,4.25-4.66,10.65,10.65,0,0,1,5.83-1.73,7.66,7.66,0,0,1,3.55.77,6.67,6.67,0,0,1,2.47,2.21,10,10,0,0,1,1.44,3.48,21.1,21.1,0,0,1,.46,4.58Z" transform="translate(1452 480.11)"/><path d="M397.6,659.2v-4.42H400v4.42Zm0,30.62v-25H400v25Z" transform="translate(1452 480.11)"/><path d="M418.67,688.63,418,689a6.72,6.72,0,0,1-1.15.5,14.29,14.29,0,0,1-1.56.43,8.63,8.63,0,0,1-1.87.19,6.13,6.13,0,0,1-1.9-.29A4.51,4.51,0,0,1,410,689a4.1,4.1,0,0,1-1.06-1.39,4.45,4.45,0,0,1-.38-1.92V666.83H405v-2h3.5v-8.54h2.4v8.54h5.81v2h-5.81v18.24a2.41,2.41,0,0,0,1,2.09,3.59,3.59,0,0,0,2.16.7,6,6,0,0,0,2.57-.5q1.08-.5,1.32-.65Z" transform="translate(1452 480.11)"/><path d="M432.88,690.31a11.63,11.63,0,0,1-4.9-1,12.1,12.1,0,0,1-3.91-2.83,13.37,13.37,0,0,1-2.59-4.15,13.5,13.5,0,0,1-.94-5,13.23,13.23,0,0,1,3.5-9,11.93,11.93,0,0,1,3.86-2.76,12.08,12.08,0,0,1,9.72,0,12.19,12.19,0,0,1,3.89,2.78,12.76,12.76,0,0,1,2.54,4.08,13.38,13.38,0,0,1,.91,4.92v.6a1.28,1.28,0,0,1,0,.46H423a11.11,11.11,0,0,0,1,4,11.37,11.37,0,0,0,2.18,3.19,9.81,9.81,0,0,0,3,2.11,9,9,0,0,0,3.7.77,9.17,9.17,0,0,0,2.54-.36,10.41,10.41,0,0,0,2.33-1,8.44,8.44,0,0,0,1.92-1.51,7.12,7.12,0,0,0,1.32-1.94l2.11.58a7.94,7.94,0,0,1-1.56,2.47,10.57,10.57,0,0,1-2.4,1.94,12.28,12.28,0,0,1-3,1.27A12.44,12.44,0,0,1,432.88,690.31Zm9.79-13.92a11.32,11.32,0,0,0-1-4,10.79,10.79,0,0,0-2.16-3.14,9.73,9.73,0,0,0-3-2.06,9.56,9.56,0,0,0-7.39,0,9.72,9.72,0,0,0-3,2.06,10,10,0,0,0-2.11,3.17,12.16,12.16,0,0,0-.94,4Z" transform="translate(1452 480.11)"/><path d="M448.52,677.25a13.68,13.68,0,0,1,.91-5,12.4,12.4,0,0,1,2.54-4.08,12,12,0,0,1,8.83-3.74,11.55,11.55,0,0,1,6,1.54,9.66,9.66,0,0,1,3.89,4.27l-2.35.77a8.08,8.08,0,0,0-3.14-3.24,8.83,8.83,0,0,0-4.49-1.18,9.08,9.08,0,0,0-3.84.82,9.59,9.59,0,0,0-3.1,2.26,10.85,10.85,0,0,0-2.09,3.38,11.65,11.65,0,0,0,2.14,11.9,10,10,0,0,0,3.12,2.33,8.71,8.71,0,0,0,3.82.86,8.82,8.82,0,0,0,2.57-.38,11.1,11.1,0,0,0,2.35-1,8.14,8.14,0,0,0,1.87-1.46,4.58,4.58,0,0,0,1.08-1.75l2.35.67a7.8,7.8,0,0,1-1.46,2.42,9.85,9.85,0,0,1-2.33,1.94,11.84,11.84,0,0,1-3,1.27,12.44,12.44,0,0,1-3.36.46,11.63,11.63,0,0,1-4.9-1,12.1,12.1,0,0,1-3.91-2.83,13.37,13.37,0,0,1-2.59-4.15A13.5,13.5,0,0,1,448.52,677.25Z" transform="translate(1452 480.11)"/><path d="M487.55,688.63l-.65.36a6.71,6.71,0,0,1-1.15.5,14.37,14.37,0,0,1-1.56.43,8.63,8.63,0,0,1-1.87.19,6.12,6.12,0,0,1-1.9-.29,4.51,4.51,0,0,1-1.56-.86,4.11,4.11,0,0,1-1.06-1.39,4.46,4.46,0,0,1-.38-1.92V666.83h-3.5v-2h3.5v-8.54h2.4v8.54h5.81v2h-5.81v18.24a2.41,2.41,0,0,0,1,2.09,3.59,3.59,0,0,0,2.16.7,6,6,0,0,0,2.57-.5q1.08-.5,1.32-.65Z" transform="translate(1452 480.11)"/><path d="M499.5,690.31q-8,0-8-11v-14.4h2.4v14.06q0,9.22,6.29,9.22a8.76,8.76,0,0,0,3.07-.55,10.77,10.77,0,0,0,5.06-3.91,12.08,12.08,0,0,0,1.56-3.07V664.87h2.4v21.6q0,1.2,1,1.2v2.16a2.29,2.29,0,0,1-.43,0h-.29a2.63,2.63,0,0,1-1.7-.6,2,2,0,0,1-.74-1.61v-3.74a12,12,0,0,1-10.66,6.38Z" transform="translate(1452 480.11)"/><path d="M531.76,667a9.8,9.8,0,0,0-9.41,7.2v15.6h-2.4v-25h2.3V671a12.06,12.06,0,0,1,3.43-4.3,8.8,8.8,0,0,1,4.58-1.9q.48,0,.86,0h.62Z" transform="translate(1452 480.11)"/><path d="M545.68,690.31a11.63,11.63,0,0,1-4.9-1,12.1,12.1,0,0,1-3.91-2.83,13.37,13.37,0,0,1-2.59-4.15,13.5,13.5,0,0,1-.94-5,13.23,13.23,0,0,1,3.5-9,11.93,11.93,0,0,1,3.86-2.76,12.08,12.08,0,0,1,9.72,0,12.19,12.19,0,0,1,3.89,2.78,12.76,12.76,0,0,1,2.54,4.08,13.38,13.38,0,0,1,.91,4.92v.6a1.28,1.28,0,0,1,0,.46H535.84a11.11,11.11,0,0,0,1,4,11.37,11.37,0,0,0,2.18,3.19,9.81,9.81,0,0,0,3,2.11,9,9,0,0,0,3.7.77,9.17,9.17,0,0,0,2.54-.36,10.41,10.41,0,0,0,2.33-1,8.44,8.44,0,0,0,1.92-1.51,7.12,7.12,0,0,0,1.32-1.94l2.11.58a7.94,7.94,0,0,1-1.56,2.47,10.57,10.57,0,0,1-2.4,1.94,12.28,12.28,0,0,1-3,1.27A12.44,12.44,0,0,1,545.68,690.31Zm9.79-13.92a11.32,11.32,0,0,0-1-4,10.79,10.79,0,0,0-2.16-3.14,9.73,9.73,0,0,0-3-2.06,9.56,9.56,0,0,0-7.39,0,9.72,9.72,0,0,0-3,2.06,10,10,0,0,0-2.11,3.17,12.16,12.16,0,0,0-.94,4Z" transform="translate(1452 480.11)"/></g></svg>