<svg xmlns="http://www.w3.org/2000/svg" viewBox="0 0 409.5 464.1"><defs><style>.cls-1{fill:#fff;fill-opacity:0.7;}</style></defs><title>mvidia</title><g id="Layer_2" data-name="Layer 2"><rect class="cls-1" width="409.5" height="464.1"/></g><g id="Layer_3" data-name="Layer 3"><path d="M164.31,176.95V153.63l-10.36,18h-1.64l-10.36-18v23.32h-2.8v-28.4H142L153.11,168l11.16-19.44h2.84v28.4Z"/><path d="M174.11,148.55l10.16,24.92,10.12-24.92h2.92l-11.84,28.4H183l-11.84-28.4Z"/><path d="M201.39,176.95v-28.4h2.8v28.4Z"/><path d="M211.31,176.95v-28.4H221a14.62,14.62,0,0,1,5.94,1.12,12.09,12.09,0,0,1,4.24,3,12.83,12.83,0,0,1,2.56,4.5,17.29,17.29,0,0,1,.86,5.5,16.92,16.92,0,0,1-1,5.86,12.72,12.72,0,0,1-2.74,4.48,12.26,12.26,0,0,1-4.28,2.88,14.76,14.76,0,0,1-5.62,1Zm20.44-14.24A14.68,14.68,0,0,0,231,158a10.64,10.64,0,0,0-2.1-3.7,9.41,9.41,0,0,0-3.38-2.42A11.55,11.55,0,0,0,221,151h-6.84v23.44H221a11.35,11.35,0,0,0,4.66-.9,9.49,9.49,0,0,0,3.38-2.48,10.76,10.76,0,0,0,2.06-3.72A14.91,14.91,0,0,0,231.75,162.71Z"/><path d="M239.91,176.95v-28.4h2.8v28.4Z"/><path d="M258.63,148.55H261l11.8,28.4h-3l-3.68-8.88H253.39l-3.64,8.88h-3Zm6.88,17.32-5.72-14-5.8,14Z"/><path d="M175.31,249.31a12.24,12.24,0,0,1,.14-1.75,6.55,6.55,0,0,1,.63-2,7.37,7.37,0,0,1,1.43-1.93A9.1,9.1,0,0,1,180,242q.78-.39,1.68-.78a10,10,0,0,0,1.65-.91,5.29,5.29,0,0,0,1.26-1.19,2.63,2.63,0,0,0,.5-1.62,2.71,2.71,0,0,0-.25-1.12,3.06,3.06,0,0,0-.74-1,3.76,3.76,0,0,0-1.25-.73,5.65,5.65,0,0,0-3.51,0,6,6,0,0,0-1.34.67,6.11,6.11,0,0,0-1,.78,7.33,7.33,0,0,0-.55.62l-1-1,.55-.55a6.78,6.78,0,0,1,1.16-.9,9.21,9.21,0,0,1,1.75-.84,6.54,6.54,0,0,1,2.28-.38,6.76,6.76,0,0,1,2.25.35,5.07,5.07,0,0,1,1.68,1,4,4,0,0,1,1,1.4,4.11,4.11,0,0,1,.35,1.67,3.5,3.5,0,0,1-.56,2,6.24,6.24,0,0,1-1.37,1.47,9.22,9.22,0,0,1-1.69,1q-.88.42-1.53.7a9.42,9.42,0,0,0-3.35,2.2,4.79,4.79,0,0,0-1.22,3.21h10v1.29Z"/><path d="M203.79,241.11a10.71,10.71,0,0,1-.52,3.4,8.29,8.29,0,0,1-1.46,2.69A6.71,6.71,0,0,1,199.6,249a6.48,6.48,0,0,1-5.57,0,6.56,6.56,0,0,1-2.2-1.76,8.42,8.42,0,0,1-1.44-2.69,11.44,11.44,0,0,1,0-6.8,8.41,8.41,0,0,1,1.44-2.69,6.72,6.72,0,0,1,2.2-1.78,6.35,6.35,0,0,1,5.57,0,6.88,6.88,0,0,1,2.21,1.78,8.28,8.28,0,0,1,1.46,2.69A10.71,10.71,0,0,1,203.79,241.11Zm-1.43,0a10,10,0,0,0-.41-2.93,7,7,0,0,0-1.13-2.27,5.29,5.29,0,0,0-1.75-1.47,5,5,0,0,0-4.51,0,5.28,5.28,0,0,0-1.75,1.47,7,7,0,0,0-1.13,2.27,10,10,0,0,0-.41,2.93,9.85,9.85,0,0,0,.41,2.91,7.16,7.16,0,0,0,1.13,2.27,5.06,5.06,0,0,0,1.75,1.47,5.16,5.16,0,0,0,4.51,0,5.07,5.07,0,0,0,1.75-1.47A7.18,7.18,0,0,0,202,244,9.87,9.87,0,0,0,202.36,241.11Z"/><path d="M216.22,248v1.29h-8.93V248h4V235.08a3.81,3.81,0,0,1-.78.73,9.23,9.23,0,0,1-1.2.74,9.78,9.78,0,0,1-1.37.59,4,4,0,0,1-1.26.24V236a3.43,3.43,0,0,0,1.48-.38,10.69,10.69,0,0,0,1.47-.85,9.81,9.81,0,0,0,1.15-.91,5.91,5.91,0,0,0,.52-.52h1.4V248Z"/><path d="M232.38,242.79a6.62,6.62,0,0,1-2,4.82,7.28,7.28,0,0,1-7.8,1.43,6.39,6.39,0,0,1-2.24-1.6,7.41,7.41,0,0,1-1.47-2.53,10.13,10.13,0,0,1-.53-3.4,24.33,24.33,0,0,1,.53-5.43,12.38,12.38,0,0,1,1.48-3.81,6.3,6.3,0,0,1,2.28-2.24,6,6,0,0,1,2.93-.73,6.29,6.29,0,0,1,3.57,1,6.22,6.22,0,0,1,2.31,2.83l-1,.76a5,5,0,0,0-1.9-2.44,5.17,5.17,0,0,0-3-.92,4.66,4.66,0,0,0-2.39.63,5.35,5.35,0,0,0-1.83,1.85,10.29,10.29,0,0,0-1.19,3,16.9,16.9,0,0,0-.43,4,5.53,5.53,0,0,1,.9-1.64,6.33,6.33,0,0,1,5-2.39,6.64,6.64,0,0,1,2.66.53,6.84,6.84,0,0,1,3.61,3.61A6.57,6.57,0,0,1,232.38,242.79Zm-6.94,5.54a5.5,5.5,0,0,0,2.17-.43,5.55,5.55,0,0,0,1.78-1.19,5.81,5.81,0,0,0,1.2-1.76,5.41,5.41,0,0,0,0-4.31,5.72,5.72,0,0,0-3-3,5.48,5.48,0,0,0-4.34,0,5.71,5.71,0,0,0-3,3,5.41,5.41,0,0,0,0,4.31,5.79,5.79,0,0,0,1.2,1.76,5.57,5.57,0,0,0,1.78,1.19A5.5,5.5,0,0,0,225.43,248.33Z"/><path d="M117.27,283.78V266.59L109.43,280h-.9l-7.84-13.41v17.19H99.27V263.9h1.43L109,278.13l8.29-14.22h1.43v19.88Z"/><path d="M130.15,263.9h1.23l8.4,19.88h-1.51l-2.77-6.55H126l-2.77,6.55H121.7Zm5,12.15-4.34-10.42-4.42,10.42Z"/><path d="M142.81,283.78V263.9h6.61a10.18,10.18,0,0,1,4.13.78,8.32,8.32,0,0,1,3,2.13,8.9,8.9,0,0,1,1.76,3.15,12.36,12.36,0,0,1,.59,3.85,12.1,12.1,0,0,1-.66,4.1,8.85,8.85,0,0,1-1.89,3.14,8.45,8.45,0,0,1-3,2,10.26,10.26,0,0,1-3.91.71Zm14.62-10a10.79,10.79,0,0,0-.53-3.46,7.78,7.78,0,0,0-1.55-2.73,7.08,7.08,0,0,0-2.51-1.79,8.52,8.52,0,0,0-3.42-.64h-5.18v17.3h5.18a8.53,8.53,0,0,0,3.46-.66,6.9,6.9,0,0,0,2.51-1.83,8,8,0,0,0,1.53-2.76A11,11,0,0,0,157.42,273.81Z"/><path d="M168.31,263.9h1.23l8.4,19.88h-1.51l-2.77-6.55h-9.49l-2.77,6.55h-1.54Zm5,12.15-4.34-10.42-4.42,10.42Z"/><path d="M192.67,263.9h1.23l8.4,19.88h-1.51L198,277.23h-9.49l-2.77,6.55h-1.54Zm5,12.15-4.34-10.42-4.42,10.42Z"/><path d="M211.8,270.48a5.72,5.72,0,0,0-5.49,4.2v9.1h-1.4V269.22h1.34v3.58a7.05,7.05,0,0,1,2-2.51,5.14,5.14,0,0,1,2.67-1.11l.5,0h.36Z"/><path d="M212.72,276.45a8,8,0,0,1,.53-2.91,7.22,7.22,0,0,1,1.48-2.38,7,7,0,0,1,5.15-2.18,6.73,6.73,0,0,1,3.5.9,5.64,5.64,0,0,1,2.27,2.49l-1.37.45a4.71,4.71,0,0,0-1.83-1.89,5.15,5.15,0,0,0-2.62-.69,5.3,5.3,0,0,0-2.24.48,5.58,5.58,0,0,0-1.81,1.32,6.32,6.32,0,0,0-1.22,2,6.8,6.8,0,0,0,1.25,6.94,5.81,5.81,0,0,0,1.82,1.36,5.08,5.08,0,0,0,2.23.5,5.15,5.15,0,0,0,1.5-.22,6.48,6.48,0,0,0,1.37-.59,4.73,4.73,0,0,0,1.09-.85,2.67,2.67,0,0,0,.63-1l1.37.39a4.54,4.54,0,0,1-.85,1.41,5.75,5.75,0,0,1-1.36,1.13,6.86,6.86,0,0,1-1.74.74,7.23,7.23,0,0,1-2,.27,6.78,6.78,0,0,1-2.86-.6,7.05,7.05,0,0,1-2.28-1.65,7.85,7.85,0,0,1-2.06-5.36Z"/><path d="M240.89,283.78h-1.4v-8.12q0-5.4-3.61-5.4a4.75,4.75,0,0,0-1.75.34,5.85,5.85,0,0,0-1.6,1,6.87,6.87,0,0,0-1.3,1.44,6.32,6.32,0,0,0-.84,1.78v9H229V263.34h1.4v9.35a7,7,0,0,1,2.48-2.72,6.22,6.22,0,0,1,3.4-1,4.47,4.47,0,0,1,2.07.45,3.89,3.89,0,0,1,1.44,1.29,5.81,5.81,0,0,1,.84,2,12.27,12.27,0,0,1,.27,2.67Z"/><path d="M245.12,265.92v-2.58h1.4v2.58Zm0,17.86V269.22h1.4v14.56Z"/><path d="M257.41,283.08l-.38.21a3.84,3.84,0,0,1-.67.29,8.16,8.16,0,0,1-.91.25,5.07,5.07,0,0,1-1.09.11,3.58,3.58,0,0,1-1.11-.17,2.63,2.63,0,0,1-.91-.5,2.41,2.41,0,0,1-.62-.81,2.61,2.61,0,0,1-.22-1.12v-11h-2v-1.15h2v-5h1.4v5h3.39v1.15H252.9V281a1.4,1.4,0,0,0,.56,1.22,2.09,2.09,0,0,0,1.26.41,3.51,3.51,0,0,0,1.5-.29q.63-.29.77-.38Z"/><path d="M265.7,284.06a6.78,6.78,0,0,1-2.86-.6,7,7,0,0,1-2.28-1.65,7.77,7.77,0,0,1-1.51-2.42,7.87,7.87,0,0,1-.55-2.94,7.69,7.69,0,0,1,.55-2.9,7.6,7.6,0,0,1,1.5-2.38,7,7,0,0,1,2.25-1.61,7,7,0,0,1,5.67,0,7.1,7.1,0,0,1,2.27,1.62,7.45,7.45,0,0,1,1.48,2.38,7.8,7.8,0,0,1,.53,2.87v.35a.75.75,0,0,1,0,.27H260a6.48,6.48,0,0,0,.59,2.34,6.63,6.63,0,0,0,1.27,1.86,5.73,5.73,0,0,0,1.78,1.23,5.25,5.25,0,0,0,2.16.45,5.34,5.34,0,0,0,1.48-.21,6.11,6.11,0,0,0,1.36-.57,4.91,4.91,0,0,0,1.12-.88,4.14,4.14,0,0,0,.77-1.13l1.23.34a4.64,4.64,0,0,1-.91,1.44,6.17,6.17,0,0,1-1.4,1.13,7.1,7.1,0,0,1-1.75.74A7.23,7.23,0,0,1,265.7,284.06Zm5.71-8.12a6.59,6.59,0,0,0-.57-2.35,6.27,6.27,0,0,0-1.26-1.83,5.68,5.68,0,0,0-1.78-1.2,5.58,5.58,0,0,0-4.31,0,5.68,5.68,0,0,0-1.78,1.2,5.82,5.82,0,0,0-1.23,1.85,7.07,7.07,0,0,0-.55,2.34Z"/><path d="M274.83,276.45a8,8,0,0,1,.53-2.91,7.22,7.22,0,0,1,1.48-2.38A7,7,0,0,1,282,269a6.73,6.73,0,0,1,3.5.9,5.64,5.64,0,0,1,2.27,2.49l-1.37.45a4.71,4.71,0,0,0-1.83-1.89,5.15,5.15,0,0,0-2.62-.69,5.3,5.3,0,0,0-2.24.48,5.58,5.58,0,0,0-1.81,1.32,6.32,6.32,0,0,0-1.22,2,6.8,6.8,0,0,0,1.25,6.94,5.81,5.81,0,0,0,1.82,1.36,5.08,5.08,0,0,0,2.23.5,5.15,5.15,0,0,0,1.5-.22,6.48,6.48,0,0,0,1.37-.59,4.73,4.73,0,0,0,1.09-.85,2.67,2.67,0,0,0,.63-1l1.37.39a4.54,4.54,0,0,1-.85,1.41,5.75,5.75,0,0,1-1.36,1.13,6.86,6.86,0,0,1-1.74.74,7.23,7.23,0,0,1-2,.27,6.78,6.78,0,0,1-2.86-.6,7.05,7.05,0,0,1-2.28-1.65,7.85,7.85,0,0,1-2.06-5.36Z"/><path d="M297.59,283.08l-.38.21a3.87,3.87,0,0,1-.67.29,8.18,8.18,0,0,1-.91.25,5.06,5.06,0,0,1-1.09.11,3.59,3.59,0,0,1-1.11-.17,2.64,2.64,0,0,1-.91-.5,2.41,2.41,0,0,1-.62-.81,2.59,2.59,0,0,1-.22-1.12v-11h-2v-1.15h2v-5h1.4v5h3.39v1.15h-3.39V281a1.4,1.4,0,0,0,.56,1.22,2.09,2.09,0,0,0,1.26.41,3.52,3.52,0,0,0,1.5-.29l.77-.38Z"/><path d="M304.67,284.06a9.35,9.35,0,0,1-3.22-.56,7.45,7.45,0,0,1-2.69-1.68l.7-1a8.16,8.16,0,0,0,2.44,1.57,7.38,7.38,0,0,0,2.77.5,5.32,5.32,0,0,0,3.07-.8,2.55,2.55,0,0,0,1.16-2.23,2.07,2.07,0,0,0-.29-1.13,2.34,2.34,0,0,0-.88-.78,7.25,7.25,0,0,0-1.46-.57q-.87-.25-2-.53t-2.14-.56a5.72,5.72,0,0,1-1.5-.67,2.59,2.59,0,0,1-.88-1,3.07,3.07,0,0,1-.29-1.43,4.1,4.1,0,0,1,.42-1.9A3.76,3.76,0,0,1,301,270a5.35,5.35,0,0,1,1.71-.8,7.71,7.71,0,0,1,2.06-.27,7.5,7.5,0,0,1,3,.57,5.3,5.3,0,0,1,2,1.47l-.78.76a4.46,4.46,0,0,0-1.89-1.26,7.25,7.25,0,0,0-2.48-.42,6.63,6.63,0,0,0-1.53.17,3.69,3.69,0,0,0-1.25.53,2.63,2.63,0,0,0-.84.94,2.83,2.83,0,0,0-.31,1.36,2.19,2.19,0,0,0,.21,1,1.77,1.77,0,0,0,.67.67,5,5,0,0,0,1.19.49q.73.21,1.74.46,1.37.34,2.44.64a7.06,7.06,0,0,1,1.78.76,3.32,3.32,0,0,1,1.09,1.06,3,3,0,0,1,.38,1.57,3.72,3.72,0,0,1-1.53,3.12A6.56,6.56,0,0,1,304.67,284.06Z"/><path d="M156.2,314.42v-14.2h5.9a3.67,3.67,0,0,1,1.66.38,4.24,4.24,0,0,1,1.31,1,4.82,4.82,0,0,1,.86,1.42,4.33,4.33,0,0,1,.31,1.59,4.81,4.81,0,0,1-.24,1.51,4.46,4.46,0,0,1-.68,1.31,3.83,3.83,0,0,1-1.06,1,3.71,3.71,0,0,1-1.36.5l3.54,5.52h-1.18l-3.44-5.36h-4.6v5.36Zm1-6.3h5a2.58,2.58,0,0,0,1.24-.3,3.13,3.13,0,0,0,1-.79,3.5,3.5,0,0,0,.61-1.12,4.06,4.06,0,0,0,.21-1.29,3.53,3.53,0,0,0-.25-1.31,3.71,3.71,0,0,0-.68-1.11,3.42,3.42,0,0,0-1-.77,2.67,2.67,0,0,0-1.23-.29h-4.84Z"/><path d="M173,314.62a4.84,4.84,0,0,1-2-.43,5,5,0,0,1-1.63-1.18,5.61,5.61,0,0,1-1.47-3.83,5.51,5.51,0,0,1,1.46-3.77,5,5,0,0,1,1.61-1.15,5,5,0,0,1,4,0,5.09,5.09,0,0,1,1.62,1.16,5.32,5.32,0,0,1,1.06,1.7,5.58,5.58,0,0,1,.38,2v.25a.55.55,0,0,1,0,.19H168.9a4.64,4.64,0,0,0,.42,1.67,4.77,4.77,0,0,0,.91,1.33,4.11,4.11,0,0,0,1.27.88,3.75,3.75,0,0,0,1.54.32,3.82,3.82,0,0,0,1.06-.15,4.33,4.33,0,0,0,1-.41,3.49,3.49,0,0,0,.8-.63,3,3,0,0,0,.55-.81l.88.24a3.31,3.31,0,0,1-.65,1,4.39,4.39,0,0,1-1,.81,5.09,5.09,0,0,1-1.25.53A5.17,5.17,0,0,1,173,314.62Zm4.08-5.8a4.72,4.72,0,0,0-.41-1.68,4.47,4.47,0,0,0-.9-1.31,4,4,0,0,0-1.27-.86,4,4,0,0,0-3.08,0,4,4,0,0,0-1.27.86,4.16,4.16,0,0,0-.88,1.32,5.06,5.06,0,0,0-.39,1.67Z"/><path d="M183.54,314.62a6.68,6.68,0,0,1-2.3-.4,5.32,5.32,0,0,1-1.92-1.2l.5-.68a5.84,5.84,0,0,0,1.74,1.12,5.3,5.3,0,0,0,2,.36,3.8,3.8,0,0,0,2.19-.57,1.82,1.82,0,0,0,.83-1.59,1.48,1.48,0,0,0-.21-.81,1.68,1.68,0,0,0-.63-.56,5.22,5.22,0,0,0-1-.41q-.62-.18-1.44-.38t-1.53-.4a4.11,4.11,0,0,1-1.07-.48,1.85,1.85,0,0,1-.63-.68,2.18,2.18,0,0,1-.21-1,2.93,2.93,0,0,1,.3-1.36,2.68,2.68,0,0,1,.83-1,3.82,3.82,0,0,1,1.22-.57,5.54,5.54,0,0,1,1.47-.19,5.36,5.36,0,0,1,2.16.41,3.79,3.79,0,0,1,1.46,1l-.56.54a3.17,3.17,0,0,0-1.35-.9,5.16,5.16,0,0,0-1.77-.3,4.74,4.74,0,0,0-1.09.12,2.64,2.64,0,0,0-.89.38,1.88,1.88,0,0,0-.6.67,2,2,0,0,0-.22,1,1.57,1.57,0,0,0,.15.74,1.27,1.27,0,0,0,.48.48,3.55,3.55,0,0,0,.85.35l1.24.33q1,.24,1.74.46a5,5,0,0,1,1.27.54,2.37,2.37,0,0,1,.78.76,2.11,2.11,0,0,1,.27,1.12,2.66,2.66,0,0,1-1.09,2.23A4.69,4.69,0,0,1,183.54,314.62Z"/><path d="M189.86,301.66v-1.84h1v1.84Zm0,12.76V304h1v10.4Z"/><path d="M198.28,314.62a4.49,4.49,0,0,1-2-.45,5.13,5.13,0,0,1-1.59-1.2,5.49,5.49,0,0,1-1-1.72,5.58,5.58,0,0,1-.37-2,5.92,5.92,0,0,1,.36-2.06,5.48,5.48,0,0,1,1-1.72,4.91,4.91,0,0,1,1.51-1.18,4.18,4.18,0,0,1,1.91-.44,4,4,0,0,1,1.28.2,5,5,0,0,1,2.06,1.3,5.33,5.33,0,0,1,.72.94v-6.46h1V313c0,.33.14.5.42.5v.9l-.2,0h-.16a.88.88,0,0,1-.68-.31,1,1,0,0,1-.28-.65v-1.16a4.8,4.8,0,0,1-1.71,1.66A4.39,4.39,0,0,1,198.28,314.62Zm.18-.9a3.49,3.49,0,0,0,1.16-.22,4.52,4.52,0,0,0,2.06-1.5,2.13,2.13,0,0,0,.44-1.08V307.5a4.11,4.11,0,0,0-.63-1.07,4.66,4.66,0,0,0-.93-.88,4.72,4.72,0,0,0-1.12-.59,3.37,3.37,0,0,0-1.16-.22,3.47,3.47,0,0,0-1.64.39,4.08,4.08,0,0,0-1.26,1,4.6,4.6,0,0,0-.8,1.44,5.07,5.07,0,0,0-.28,1.67,4.54,4.54,0,0,0,.32,1.7,4.6,4.6,0,0,0,.89,1.42,4.31,4.31,0,0,0,1.32,1A3.71,3.71,0,0,0,198.46,313.71Z"/><path d="M210.72,314.62a4.84,4.84,0,0,1-2-.43A5,5,0,0,1,207,313a5.61,5.61,0,0,1-1.47-3.83,5.5,5.5,0,0,1,1.46-3.77,5,5,0,0,1,1.61-1.15,5,5,0,0,1,4,0,5.1,5.1,0,0,1,1.62,1.16,5.31,5.31,0,0,1,1.06,1.7,5.58,5.58,0,0,1,.38,2v.25a.57.57,0,0,1,0,.19h-9.12a4.63,4.63,0,0,0,.42,1.67,4.76,4.76,0,0,0,.91,1.33,4.11,4.11,0,0,0,1.27.88,3.76,3.76,0,0,0,1.54.32,3.83,3.83,0,0,0,1.06-.15,4.33,4.33,0,0,0,1-.41,3.49,3.49,0,0,0,.8-.63,2.94,2.94,0,0,0,.55-.81l.88.24a3.31,3.31,0,0,1-.65,1,4.41,4.41,0,0,1-1,.81,5.09,5.09,0,0,1-1.25.53A5.17,5.17,0,0,1,210.72,314.62Zm4.08-5.8a4.72,4.72,0,0,0-.41-1.68,4.48,4.48,0,0,0-.9-1.31,4,4,0,0,0-1.27-.86,4,4,0,0,0-3.08,0,4,4,0,0,0-1.27.86,4.15,4.15,0,0,0-.88,1.32,5.05,5.05,0,0,0-.39,1.67Z"/><path d="M226.46,314.42h-1v-5.8a5.78,5.78,0,0,0-.57-2.94,2,2,0,0,0-1.81-.92,3.76,3.76,0,0,0-1.31.24,4.44,4.44,0,0,0-1.21.68,4.93,4.93,0,0,0-1,1A4.22,4.22,0,0,0,219,308v6.44h-1V304h.94v2.48a4.86,4.86,0,0,1,.79-1.09,5,5,0,0,1,1.06-.84A5.36,5.36,0,0,1,222,304a4.91,4.91,0,0,1,1.36-.19,2.56,2.56,0,0,1,2.4,1.19,6.8,6.8,0,0,1,.7,3.41Z"/><path d="M234,313.92l-.27.15a2.7,2.7,0,0,1-.48.21,5.9,5.9,0,0,1-.65.18,3.62,3.62,0,0,1-.78.08,2.54,2.54,0,0,1-.79-.12,1.87,1.87,0,0,1-.65-.36,1.71,1.71,0,0,1-.44-.58,1.85,1.85,0,0,1-.16-.8v-7.84h-1.46V304h1.46v-3.56h1V304h2.42v.82H230.8v7.6a1,1,0,0,0,.4.87,1.5,1.5,0,0,0,.9.29,2.52,2.52,0,0,0,1.07-.21l.55-.27Z"/><path d="M235.78,301.66v-1.84h1v1.84Zm0,12.76V304h1v10.4Z"/><path d="M242.48,314.62a3.56,3.56,0,0,1-2.43-.93,3,3,0,0,1-.73-1,3.11,3.11,0,0,1-.26-1.27,2.46,2.46,0,0,1,.32-1.24,3.05,3.05,0,0,1,.89-1,4.43,4.43,0,0,1,1.37-.64,6.36,6.36,0,0,1,1.76-.23,9.74,9.74,0,0,1,1.69.15,8.36,8.36,0,0,1,1.53.41v-1a3.24,3.24,0,0,0-.84-2.35,3,3,0,0,0-2.28-.87,4.57,4.57,0,0,0-1.61.32,8.22,8.22,0,0,0-1.73.92l-.38-.68a6.82,6.82,0,0,1,3.8-1.36,4,4,0,0,1,3,1.09,4.09,4.09,0,0,1,1.08,3V313c0,.33.15.5.44.5v.9l-.21,0h-.19a.81.81,0,0,1-.64-.27,1.13,1.13,0,0,1-.28-.65v-.86a4.69,4.69,0,0,1-1.84,1.44A5.88,5.88,0,0,1,242.48,314.62Zm.2-.8a5.11,5.11,0,0,0,2.13-.44,3.64,3.64,0,0,0,1.49-1.16,1.34,1.34,0,0,0,.32-.8v-1.84a8,8,0,0,0-1.5-.42,9.11,9.11,0,0,0-1.62-.14,5.53,5.53,0,0,0-1.42.17,3.77,3.77,0,0,0-1.1.47,2.16,2.16,0,0,0-.71.73,1.85,1.85,0,0,0-.25,1,2.44,2.44,0,0,0,.2,1,2.3,2.3,0,0,0,.56.79,2.67,2.67,0,0,0,.85.52A2.87,2.87,0,0,0,242.68,313.81Z"/><path d="M250.74,299.81h1v12.54a1.27,1.27,0,0,0,.33.92,1.21,1.21,0,0,0,.91.34,3.33,3.33,0,0,0,.53-.05,2.85,2.85,0,0,0,.57-.15l.2.8a4.12,4.12,0,0,1-.84.23,4.93,4.93,0,0,1-.86.09,1.82,1.82,0,0,1-1.35-.51,1.85,1.85,0,0,1-.51-1.37Z"/></g></svg>