<svg xmlns="http://www.w3.org/2000/svg" viewBox="0 0 1118.24 1196.24"><defs><style>.cls-1{fill:#fff;fill-opacity:0.7;}</style></defs><title>thetower</title><g id="Layer_3" data-name="Layer 3"><rect class="cls-1" width="1118.24" height="1196.24"/></g><g id="Layer_2" data-name="Layer 2"><path d="M69.56,245H44.27v64.8h-7V245H12v-6.2h57.6Z" transform="translate(261.24 179.35)"/><path d="M136.16,238.77v71h-6.9v-33.2H87.16v33.2h-7v-71h7v31.6h42.1v-31.6Z" transform="translate(261.24 179.35)"/><path d="M201.66,303.57v6.2H154v-71h46.8V245H161v25.6h34.7v5.9H161v27.1Z" transform="translate(261.24 179.35)"/><path d="M288,245h-25.3v64.8h-7V245h-25.3v-6.2H288Z" transform="translate(261.24 179.35)"/><path d="M323.86,310.27a30.06,30.06,0,0,1-13.55-3,33.67,33.67,0,0,1-10.55-8.1,36.8,36.8,0,0,1-6.8-11.55,38.1,38.1,0,0,1-2.4-13.3,36.91,36.91,0,0,1,2.55-13.6,37.51,37.51,0,0,1,7.05-11.5,34.1,34.1,0,0,1,10.6-7.95,29.93,29.93,0,0,1,13.2-3,29.28,29.28,0,0,1,13.55,3.15,34,34,0,0,1,10.5,8.25,38.11,38.11,0,0,1,6.75,11.55,37.42,37.42,0,0,1,2.4,13.15,36.9,36.9,0,0,1-2.55,13.6,37.37,37.37,0,0,1-7,11.45,33.86,33.86,0,0,1-10.55,7.9A29.91,29.91,0,0,1,323.86,310.27Zm-26.3-36a33.06,33.06,0,0,0,1.9,11.15,30.27,30.27,0,0,0,5.4,9.5,26.52,26.52,0,0,0,8.3,6.6,23.18,23.18,0,0,0,10.7,2.45,22.87,22.87,0,0,0,10.9-2.6,26.59,26.59,0,0,0,8.3-6.8,31.45,31.45,0,0,0,5.25-9.5,32.65,32.65,0,0,0-.1-21.95,30.51,30.51,0,0,0-5.45-9.45,26.9,26.9,0,0,0-8.3-6.55,23,23,0,0,0-10.6-2.45,23.25,23.25,0,0,0-10.9,2.55,26,26,0,0,0-8.3,6.75,31.38,31.38,0,0,0-5.25,9.5A32.54,32.54,0,0,0,297.56,274.27Z" transform="translate(261.24 179.35)"/><path d="M394.46,239.27h6.6l10,25.2,10.1-25.2h6.7l-12.4,30.3,13.6,32.1,25.7-62.9h7.6l-30.1,71h-6.2l-14.9-35.1-15,35.1h-6.1l-30-71h7.5l25.8,62.9,13.5-32.1Z" transform="translate(261.24 179.35)"/><path d="M520.06,303.57v6.2h-47.7v-71h46.8V245h-39.8v25.6h34.7v5.9h-34.7v27.1Z" transform="translate(261.24 179.35)"/><path d="M533.26,309.77v-71h30a18.43,18.43,0,0,1,8.45,2,22.29,22.29,0,0,1,6.65,5.1,23.44,23.44,0,0,1,4.35,7.15,22.26,22.26,0,0,1,1.55,8.1,24.05,24.05,0,0,1-1.15,7.45,23.09,23.09,0,0,1-3.2,6.4,19.39,19.39,0,0,1-5,4.8,17.5,17.5,0,0,1-6.5,2.65l17.4,27.4H578l-16.7-26.2h-21v26.2Zm7-32.4h23.2a11.89,11.89,0,0,0,5.65-1.35,13.46,13.46,0,0,0,4.35-3.65,17.74,17.74,0,0,0,2.8-5.2,18.59,18.59,0,0,0,1-6.1,16.81,16.81,0,0,0-1.15-6.15,17,17,0,0,0-3.1-5.15,14.82,14.82,0,0,0-4.6-3.5,12.46,12.46,0,0,0-5.55-1.3h-22.6Z" transform="translate(261.24 179.35)"/><path d="M226.4,504.09a31.55,31.55,0,0,1,.36-4.5,16.84,16.84,0,0,1,1.62-5,18.94,18.94,0,0,1,3.67-5,23.4,23.4,0,0,1,6.44-4.36q2-1,4.32-2a25.64,25.64,0,0,0,4.25-2.34,13.62,13.62,0,0,0,3.24-3.06,6.76,6.76,0,0,0,1.3-4.18,7,7,0,0,0-.65-2.88,7.91,7.91,0,0,0-1.91-2.59,9.65,9.65,0,0,0-3.2-1.87,14.52,14.52,0,0,0-9,0,15.44,15.44,0,0,0-3.46,1.73,15.76,15.76,0,0,0-2.45,2,18.7,18.7,0,0,0-1.4,1.58L227,469.1l1.4-1.4a17.47,17.47,0,0,1,3-2.3,23.81,23.81,0,0,1,4.5-2.16,16.8,16.8,0,0,1,5.87-1,17.4,17.4,0,0,1,5.8.9,13.06,13.06,0,0,1,4.32,2.45,10.22,10.22,0,0,1,2.66,3.6,10.56,10.56,0,0,1,.9,4.28,9,9,0,0,1-1.44,5.11,16,16,0,0,1-3.53,3.78,23.77,23.77,0,0,1-4.36,2.7q-2.27,1.08-3.92,1.8a24.25,24.25,0,0,0-8.6,5.65,12.32,12.32,0,0,0-3.13,8.24h25.78v3.31Z" transform="translate(261.24 179.35)"/><path d="M299.62,483a27.53,27.53,0,0,1-1.33,8.75,21.3,21.3,0,0,1-3.74,6.91,17.27,17.27,0,0,1-5.69,4.54,16.65,16.65,0,0,1-14.33,0,16.88,16.88,0,0,1-5.65-4.54,21.65,21.65,0,0,1-3.71-6.91,29.39,29.39,0,0,1,0-17.5,21.66,21.66,0,0,1,3.71-6.91,17.31,17.31,0,0,1,5.65-4.57,16.33,16.33,0,0,1,14.33,0,17.71,17.71,0,0,1,5.69,4.57,21.31,21.31,0,0,1,3.74,6.91A27.53,27.53,0,0,1,299.62,483Zm-3.67,0a25.7,25.7,0,0,0-1-7.52,18,18,0,0,0-2.92-5.83,13.61,13.61,0,0,0-4.5-3.78,13,13,0,0,0-11.59,0,13.59,13.59,0,0,0-4.5,3.78,17.94,17.94,0,0,0-2.92,5.83,25.67,25.67,0,0,0-1,7.52,25.31,25.31,0,0,0,1,7.49,18.4,18.4,0,0,0,2.92,5.83,13,13,0,0,0,4.5,3.78,13.28,13.28,0,0,0,11.59,0,13,13,0,0,0,4.5-3.78,18.45,18.45,0,0,0,2.92-5.83A25.34,25.34,0,0,0,295.95,483Z" transform="translate(261.24 179.35)"/><path d="M331.59,500.78v3.31h-23v-3.31h10.22V467.52a9.8,9.8,0,0,1-2,1.87,23.51,23.51,0,0,1-3.1,1.91,25.3,25.3,0,0,1-3.53,1.51,10.18,10.18,0,0,1-3.24.61v-3.6a8.81,8.81,0,0,0,3.82-1,27.74,27.74,0,0,0,3.78-2.2,25.94,25.94,0,0,0,3-2.34,15.17,15.17,0,0,0,1.33-1.33h3.6v37.8Z" transform="translate(261.24 179.35)"/><path d="M352.83,481.77a17.54,17.54,0,0,1,6.48,1.19,16.14,16.14,0,0,1,5.29,3.35,15.58,15.58,0,0,1,3.56,5.15,17.47,17.47,0,0,1-.11,13.46,16.8,16.8,0,0,1-3.78,5.29,16.47,16.47,0,0,1-5.54,3.42,18.94,18.94,0,0,1-6.7,1.19,17.93,17.93,0,0,1-9.83-2.77,17.4,17.4,0,0,1-6.52-7.31l2.66-1.51A15.42,15.42,0,0,0,352,511.51a14.89,14.89,0,0,0,5.4-1,12.64,12.64,0,0,0,4.36-2.77,13.28,13.28,0,0,0,4-9.72,12.94,12.94,0,0,0-1-5.26,12.73,12.73,0,0,0-2.84-4.1,12.6,12.6,0,0,0-4.21-2.66,14.3,14.3,0,0,0-5.22-.94,15.26,15.26,0,0,0-6.91,1.62,14,14,0,0,0-5.33,4.64h-3.46c0-.33.18-1,.4-2s.46-2.21.72-3.6.56-2.93.9-4.61l1-5q1.22-5.9,2.66-13.1h24.48v3.38H345.2l-4,20.23a14.85,14.85,0,0,1,5.18-3.56A16.7,16.7,0,0,1,352.83,481.77Z" transform="translate(261.24 179.35)"/><path d="M75,592.85V548.64L54.82,583.13h-2.3L32.36,548.64v44.21H28.69V541.73h3.67L53.67,578.3,75,541.73h3.67v51.12Z" transform="translate(261.24 179.35)"/><path d="M108.1,541.73h3.17l21.6,51.12H129L121.85,576H97.45l-7.13,16.85h-4ZM120.85,573l-11.16-26.78L98.31,573Z" transform="translate(261.24 179.35)"/><path d="M140.65,592.85V541.73h17a26.12,26.12,0,0,1,10.62,2,21.39,21.39,0,0,1,7.6,5.47,22.91,22.91,0,0,1,4.54,8.1,31.79,31.79,0,0,1,1.51,9.9,31.08,31.08,0,0,1-1.69,10.55,22.73,22.73,0,0,1-4.86,8.06,21.69,21.69,0,0,1-7.67,5.18,26.35,26.35,0,0,1-10,1.84Zm37.58-25.63a27.77,27.77,0,0,0-1.37-8.89,20,20,0,0,0-4-7,18.22,18.22,0,0,0-6.44-4.61,21.88,21.88,0,0,0-8.78-1.66H144.32v44.5h13.32a21.92,21.92,0,0,0,8.89-1.69,17.75,17.75,0,0,0,6.44-4.72A20.64,20.64,0,0,0,176.9,576,28.21,28.21,0,0,0,178.23,567.21Z" transform="translate(261.24 179.35)"/><path d="M206.24,541.73h3.17L231,592.85h-3.89L220,576H195.58l-7.13,16.85h-4ZM219,573l-11.16-26.78L196.45,573Z" transform="translate(261.24 179.35)"/><path d="M268.88,541.73H272l21.6,51.12h-3.89L282.63,576H258.22l-7.13,16.85h-4ZM281.62,573l-11.16-26.78L259.08,573Z" transform="translate(261.24 179.35)"/><path d="M318.05,558.65a14.71,14.71,0,0,0-14.11,10.8v23.4h-3.6V555.41h3.46v9.22a18.09,18.09,0,0,1,5.15-6.44,13.18,13.18,0,0,1,6.88-2.84c.48,0,.91-.07,1.3-.07h.94Z" transform="translate(261.24 179.35)"/><path d="M320.43,574a20.51,20.51,0,0,1,1.37-7.49,18.58,18.58,0,0,1,3.82-6.12,18,18,0,0,1,13.25-5.62,17.33,17.33,0,0,1,9,2.3,14.51,14.51,0,0,1,5.83,6.41l-3.53,1.15a12.1,12.1,0,0,0-4.72-4.86,13.24,13.24,0,0,0-6.73-1.76,13.64,13.64,0,0,0-5.76,1.22,14.4,14.4,0,0,0-4.64,3.38,16.28,16.28,0,0,0-3.13,5.08,17.48,17.48,0,0,0,3.2,17.86,14.93,14.93,0,0,0,4.68,3.49,13.07,13.07,0,0,0,5.72,1.3,13.24,13.24,0,0,0,3.85-.58,16.63,16.63,0,0,0,3.53-1.51A12.25,12.25,0,0,0,349,586a6.87,6.87,0,0,0,1.62-2.63l3.53,1a11.71,11.71,0,0,1-2.2,3.64,14.74,14.74,0,0,1-3.49,2.92,17.71,17.71,0,0,1-4.46,1.91,18.65,18.65,0,0,1-5,.68,17.43,17.43,0,0,1-7.34-1.55,18.12,18.12,0,0,1-5.87-4.25A20.19,20.19,0,0,1,320.43,574Z" transform="translate(261.24 179.35)"/><path d="M392.86,592.85h-3.6V572q0-13.89-9.29-13.9a12.2,12.2,0,0,0-4.5.86,15,15,0,0,0-4.1,2.45,17.68,17.68,0,0,0-3.35,3.71,16.26,16.26,0,0,0-2.16,4.57v23.18h-3.6V540.29h3.6v24a18.07,18.07,0,0,1,6.37-7,16,16,0,0,1,8.75-2.59,11.49,11.49,0,0,1,5.33,1.15,10,10,0,0,1,3.71,3.31,15,15,0,0,1,2.16,5.22,31.68,31.68,0,0,1,.68,6.88Z" transform="translate(261.24 179.35)"/><path d="M403.73,546.91v-6.62h3.6v6.62Zm0,45.94V555.41h3.6v37.44Z" transform="translate(261.24 179.35)"/><path d="M435.34,591q-.29.15-1,.54a9.93,9.93,0,0,1-1.73.76,21.16,21.16,0,0,1-2.34.65,13,13,0,0,1-2.81.29,9.16,9.16,0,0,1-2.84-.43,6.74,6.74,0,0,1-2.34-1.3,6.16,6.16,0,0,1-1.58-2.09,6.69,6.69,0,0,1-.58-2.88V558.36h-5.26v-3h5.26V542.59h3.6v12.82h8.71v3h-8.71v27.36a3.61,3.61,0,0,0,1.44,3.13,5.38,5.38,0,0,0,3.24,1,9,9,0,0,0,3.85-.76q1.62-.76,2-1Z" transform="translate(261.24 179.35)"/><path d="M456.65,593.57a17.44,17.44,0,0,1-7.34-1.55,18.12,18.12,0,0,1-5.87-4.25,20.06,20.06,0,0,1-3.89-6.23,20.26,20.26,0,0,1-1.4-7.56,19.85,19.85,0,0,1,5.26-13.57,17.91,17.91,0,0,1,5.8-4.14,18.13,18.13,0,0,1,14.58,0,18.28,18.28,0,0,1,5.83,4.18,19.11,19.11,0,0,1,3.82,6.12,20.07,20.07,0,0,1,1.37,7.38v.9a2,2,0,0,1-.07.68H441.89a16.71,16.71,0,0,0,1.51,6,17.08,17.08,0,0,0,3.28,4.79,14.73,14.73,0,0,0,4.57,3.17,13.48,13.48,0,0,0,5.54,1.15,13.68,13.68,0,0,0,3.82-.54,15.55,15.55,0,0,0,3.49-1.48A12.6,12.6,0,0,0,467,586.4a10.65,10.65,0,0,0,2-2.92l3.17.86a11.93,11.93,0,0,1-2.34,3.71,15.83,15.83,0,0,1-3.6,2.92,18.31,18.31,0,0,1-4.5,1.91A18.64,18.64,0,0,1,456.65,593.57Zm14.69-20.88a17,17,0,0,0-1.48-6,16.2,16.2,0,0,0-3.24-4.72,14.57,14.57,0,0,0-4.57-3.1,14.33,14.33,0,0,0-11.09,0,14.53,14.53,0,0,0-4.57,3.1,15,15,0,0,0-3.17,4.75,18.24,18.24,0,0,0-1.4,6Z" transform="translate(261.24 179.35)"/><path d="M480.12,574a20.53,20.53,0,0,1,1.37-7.49,18.57,18.57,0,0,1,3.82-6.12,18,18,0,0,1,13.25-5.62,17.33,17.33,0,0,1,9,2.3,14.51,14.51,0,0,1,5.83,6.41l-3.53,1.15a12.11,12.11,0,0,0-4.72-4.86,13.25,13.25,0,0,0-6.73-1.76,13.63,13.63,0,0,0-5.76,1.22,14.4,14.4,0,0,0-4.64,3.38,16.26,16.26,0,0,0-3.13,5.08,17.48,17.48,0,0,0,3.2,17.86,14.93,14.93,0,0,0,4.68,3.49,13.07,13.07,0,0,0,5.72,1.3,13.23,13.23,0,0,0,3.85-.58,16.63,16.63,0,0,0,3.53-1.51,12.25,12.25,0,0,0,2.81-2.2,6.87,6.87,0,0,0,1.62-2.63l3.53,1a11.71,11.71,0,0,1-2.2,3.64,14.75,14.75,0,0,1-3.49,2.92,17.7,17.7,0,0,1-4.46,1.91,18.64,18.64,0,0,1-5,.68,17.44,17.44,0,0,1-7.34-1.55,18.12,18.12,0,0,1-5.87-4.25,20.06,20.06,0,0,1-3.89-6.23A20.26,20.26,0,0,1,480.12,574Z" transform="translate(261.24 179.35)"/><path d="M538.66,591q-.29.15-1,.54a9.93,9.93,0,0,1-1.73.76,21.16,21.16,0,0,1-2.34.65,13,13,0,0,1-2.81.29,9.16,9.16,0,0,1-2.84-.43,6.74,6.74,0,0,1-2.34-1.3,6.16,6.16,0,0,1-1.58-2.09,6.69,6.69,0,0,1-.58-2.88V558.36h-5.26v-3h5.26V542.59h3.6v12.82h8.71v3h-8.71v27.36a3.61,3.61,0,0,0,1.44,3.13,5.38,5.38,0,0,0,3.24,1,9,9,0,0,0,3.85-.76q1.62-.76,2-1Z" transform="translate(261.24 179.35)"/><path d="M556.87,593.57a24,24,0,0,1-8.28-1.44,19.12,19.12,0,0,1-6.91-4.32l1.8-2.45a21,21,0,0,0,6.26,4,19,19,0,0,0,7.13,1.3,13.68,13.68,0,0,0,7.88-2.05,6.56,6.56,0,0,0,3-5.72A5.32,5.32,0,0,0,567,580a6.06,6.06,0,0,0-2.27-2A18.78,18.78,0,0,0,561,576.5q-2.23-.65-5.18-1.37-3.17-.72-5.51-1.44a14.75,14.75,0,0,1-3.85-1.73,6.66,6.66,0,0,1-2.27-2.45,7.86,7.86,0,0,1-.76-3.67,10.52,10.52,0,0,1,1.08-4.9,9.66,9.66,0,0,1,3-3.46,13.72,13.72,0,0,1,4.39-2.05,19.85,19.85,0,0,1,5.29-.68,19.3,19.3,0,0,1,7.78,1.48,13.64,13.64,0,0,1,5.26,3.78l-2,1.94a11.43,11.43,0,0,0-4.86-3.24,18.61,18.61,0,0,0-6.37-1.08,17.09,17.09,0,0,0-3.92.43,9.46,9.46,0,0,0-3.2,1.37,6.76,6.76,0,0,0-2.16,2.41,7.28,7.28,0,0,0-.79,3.49,5.65,5.65,0,0,0,.54,2.66,4.58,4.58,0,0,0,1.73,1.73,12.82,12.82,0,0,0,3.06,1.26q1.87.54,4.46,1.19,3.53.86,6.26,1.66a18.11,18.11,0,0,1,4.57,1.94,8.55,8.55,0,0,1,2.81,2.74,7.61,7.61,0,0,1,1,4,9.57,9.57,0,0,1-3.92,8Q563.43,593.57,556.87,593.57Z" transform="translate(261.24 179.35)"/><path d="M183.28,664.08V630h14.16a8.79,8.79,0,0,1,4,.91,10.18,10.18,0,0,1,3.14,2.42,11.58,11.58,0,0,1,2.06,3.41,10.38,10.38,0,0,1,.74,3.82,11.52,11.52,0,0,1-.58,3.62,10.66,10.66,0,0,1-1.63,3.14,9.21,9.21,0,0,1-2.54,2.3,8.92,8.92,0,0,1-3.26,1.2l8.5,13.25H205l-8.26-12.86h-11v12.86ZM185.73,649h12a6.21,6.21,0,0,0,3-.72,7.56,7.56,0,0,0,2.3-1.9,8.41,8.41,0,0,0,1.46-2.69,9.73,9.73,0,0,0,.5-3.1,8.46,8.46,0,0,0-.6-3.14,8.85,8.85,0,0,0-1.63-2.66,8.16,8.16,0,0,0-2.4-1.85,6.42,6.42,0,0,0-3-.7H185.73Z" transform="translate(261.24 179.35)"/><path d="M223.6,664.56a11.63,11.63,0,0,1-4.9-1,12.11,12.11,0,0,1-3.91-2.83,13.46,13.46,0,0,1-3.53-9.19,13.23,13.23,0,0,1,3.5-9,11.93,11.93,0,0,1,3.86-2.76,12.08,12.08,0,0,1,9.72,0,12.18,12.18,0,0,1,3.89,2.78,12.76,12.76,0,0,1,2.54,4.08,13.38,13.38,0,0,1,.91,4.92v.6a1.3,1.3,0,0,1,0,.46H213.76a11.11,11.11,0,0,0,1,4,11.38,11.38,0,0,0,2.18,3.19,9.82,9.82,0,0,0,3,2.11,9,9,0,0,0,3.7.77,9.16,9.16,0,0,0,2.54-.36,10.4,10.4,0,0,0,2.33-1,8.45,8.45,0,0,0,1.92-1.51,7.11,7.11,0,0,0,1.32-1.94l2.11.58a8,8,0,0,1-1.56,2.47,10.57,10.57,0,0,1-2.4,1.94,12.27,12.27,0,0,1-3,1.27A12.44,12.44,0,0,1,223.6,664.56Zm9.79-13.92a11.34,11.34,0,0,0-1-4,10.79,10.79,0,0,0-2.16-3.14,9.72,9.72,0,0,0-3-2.06,9.56,9.56,0,0,0-7.39,0,9.7,9.7,0,0,0-3,2.06,10,10,0,0,0-2.11,3.17,12.16,12.16,0,0,0-.94,4Z" transform="translate(261.24 179.35)"/><path d="M248.9,664.56a16,16,0,0,1-5.52-1,12.75,12.75,0,0,1-4.61-2.88l1.2-1.63a14,14,0,0,0,4.18,2.69,12.68,12.68,0,0,0,4.75.86,9.12,9.12,0,0,0,5.26-1.37,4.37,4.37,0,0,0,2-3.82,3.55,3.55,0,0,0-.5-1.94,4,4,0,0,0-1.51-1.34,12.54,12.54,0,0,0-2.5-1q-1.49-.43-3.46-.91t-3.67-1a9.84,9.84,0,0,1-2.57-1.15,4.45,4.45,0,0,1-1.51-1.63,5.25,5.25,0,0,1-.5-2.45,7,7,0,0,1,.72-3.26,6.43,6.43,0,0,1,2-2.3,9.16,9.16,0,0,1,2.93-1.37,13.25,13.25,0,0,1,3.53-.46,12.87,12.87,0,0,1,5.18,1,9.1,9.1,0,0,1,3.5,2.52l-1.34,1.3a7.62,7.62,0,0,0-3.24-2.16,12.39,12.39,0,0,0-4.25-.72,11.43,11.43,0,0,0-2.62.29,6.32,6.32,0,0,0-2.14.91,4.49,4.49,0,0,0-1.44,1.61,4.85,4.85,0,0,0-.53,2.33,3.76,3.76,0,0,0,.36,1.78,3,3,0,0,0,1.15,1.15,8.52,8.52,0,0,0,2,.84q1.25.36,3,.79,2.35.58,4.18,1.1a12.07,12.07,0,0,1,3,1.3,5.68,5.68,0,0,1,1.87,1.82,5.07,5.07,0,0,1,.65,2.69,6.38,6.38,0,0,1-2.62,5.35A11.24,11.24,0,0,1,248.9,664.56Z" transform="translate(261.24 179.35)"/><path d="M264.06,633.46V629h2.4v4.42Zm0,30.62v-25h2.4v25Z" transform="translate(261.24 179.35)"/><path d="M284.27,664.56a10.77,10.77,0,0,1-4.8-1.08,12.31,12.31,0,0,1-3.82-2.88,13.18,13.18,0,0,1-2.5-4.13,13.41,13.41,0,0,1-.89-4.82,14.23,14.23,0,0,1,.86-4.94,13.2,13.2,0,0,1,2.4-4.13,11.78,11.78,0,0,1,3.62-2.83,10,10,0,0,1,4.58-1.06,9.67,9.67,0,0,1,3.07.48,12.24,12.24,0,0,1,2.69,1.27,12,12,0,0,1,2.26,1.85,12.82,12.82,0,0,1,1.73,2.26V629h2.4v31.68q0,1.2,1,1.2v2.16l-.48.07-.38,0a2.11,2.11,0,0,1-1.63-.74,2.3,2.3,0,0,1-.67-1.56v-2.78a11.54,11.54,0,0,1-4.1,4A10.53,10.53,0,0,1,284.27,664.56Zm.43-2.16a8.34,8.34,0,0,0,2.78-.53,10.81,10.81,0,0,0,4.94-3.6,5.09,5.09,0,0,0,1.06-2.59v-8.21A9.87,9.87,0,0,0,292,644.9a11.17,11.17,0,0,0-2.23-2.11,11.4,11.4,0,0,0-2.69-1.42,8.08,8.08,0,0,0-2.78-.53,8.31,8.31,0,0,0-3.94.94,9.79,9.79,0,0,0-3,2.45,11,11,0,0,0-1.92,3.46,12.17,12.17,0,0,0-.67,4,10.87,10.87,0,0,0,.77,4.08,11,11,0,0,0,2.14,3.41,10.35,10.35,0,0,0,3.17,2.35A8.92,8.92,0,0,0,284.7,662.4Z" transform="translate(261.24 179.35)"/><path d="M314.13,664.56a11.63,11.63,0,0,1-4.9-1,12.1,12.1,0,0,1-3.91-2.83,13.37,13.37,0,0,1-2.59-4.15,13.5,13.5,0,0,1-.94-5,13.23,13.23,0,0,1,3.5-9,11.93,11.93,0,0,1,3.86-2.76,12.08,12.08,0,0,1,9.72,0,12.19,12.19,0,0,1,3.89,2.78,12.76,12.76,0,0,1,2.54,4.08,13.38,13.38,0,0,1,.91,4.92v.6a1.28,1.28,0,0,1,0,.46H304.29a11.11,11.11,0,0,0,1,4,11.37,11.37,0,0,0,2.18,3.19,9.81,9.81,0,0,0,3,2.11,9,9,0,0,0,3.7.77,9.17,9.17,0,0,0,2.54-.36,10.41,10.41,0,0,0,2.33-1,8.44,8.44,0,0,0,1.92-1.51,7.12,7.12,0,0,0,1.32-1.94l2.11.58a7.94,7.94,0,0,1-1.56,2.47,10.57,10.57,0,0,1-2.4,1.94,12.28,12.28,0,0,1-3,1.27A12.44,12.44,0,0,1,314.13,664.56Zm9.79-13.92a11.32,11.32,0,0,0-1-4,10.79,10.79,0,0,0-2.16-3.14,9.73,9.73,0,0,0-3-2.06,9.56,9.56,0,0,0-7.39,0,9.72,9.72,0,0,0-3,2.06,10,10,0,0,0-2.11,3.17,12.16,12.16,0,0,0-.94,4Z" transform="translate(261.24 179.35)"/><path d="M351.9,664.08h-2.4V650.16q0-4.85-1.37-7.06a4.73,4.73,0,0,0-4.34-2.21,9,9,0,0,0-3.14.58,10.66,10.66,0,0,0-2.9,1.63,11.93,11.93,0,0,0-2.35,2.47,10.17,10.17,0,0,0-1.49,3v15.46h-2.4v-25h2.26v6a11.74,11.74,0,0,1,1.9-2.62,12,12,0,0,1,2.54-2,12.83,12.83,0,0,1,3-1.3,11.75,11.75,0,0,1,3.26-.46q4.08,0,5.76,2.86t1.68,8.18Z" transform="translate(261.24 179.35)"/><path d="M370,662.88l-.65.36a6.72,6.72,0,0,1-1.15.5,14.29,14.29,0,0,1-1.56.43,8.63,8.63,0,0,1-1.87.19,6.13,6.13,0,0,1-1.9-.29,4.51,4.51,0,0,1-1.56-.86,4.1,4.1,0,0,1-1.06-1.39,4.45,4.45,0,0,1-.38-1.92V641.09h-3.5v-2h3.5v-8.54h2.4v8.54h5.81v2h-5.81v18.24a2.41,2.41,0,0,0,1,2.09,3.59,3.59,0,0,0,2.16.7,6,6,0,0,0,2.57-.5q1.08-.5,1.32-.65Z" transform="translate(261.24 179.35)"/><path d="M374.27,633.46V629h2.4v4.42Zm0,30.62v-25h2.4v25Z" transform="translate(261.24 179.35)"/><path d="M390.35,664.56a8.56,8.56,0,0,1-5.83-2.23,7.21,7.21,0,0,1-1.75-2.45,7.45,7.45,0,0,1-.62-3,5.89,5.89,0,0,1,.77-3,7.36,7.36,0,0,1,2.14-2.33,10.59,10.59,0,0,1,3.29-1.54,15.24,15.24,0,0,1,4.22-.55,23.28,23.28,0,0,1,4.06.36,20.07,20.07,0,0,1,3.67,1v-2.45a7.78,7.78,0,0,0-2-5.64,7.25,7.25,0,0,0-5.47-2.09,11,11,0,0,0-3.86.77,19.74,19.74,0,0,0-4.15,2.21l-.91-1.63a16.38,16.38,0,0,1,9.12-3.26,9.55,9.55,0,0,1,7.1,2.62,9.81,9.81,0,0,1,2.59,7.22v12.19q0,1.2,1.06,1.2v2.16l-.5.07-.46,0a2,2,0,0,1-1.54-.65,2.71,2.71,0,0,1-.67-1.56V659.9a11.21,11.21,0,0,1-4.42,3.46A14.09,14.09,0,0,1,390.35,664.56Zm.48-1.92a12.23,12.23,0,0,0,5.11-1.06,8.74,8.74,0,0,0,3.58-2.78,3.22,3.22,0,0,0,.77-1.92v-4.42a19.28,19.28,0,0,0-3.6-1,22,22,0,0,0-3.89-.34,13.24,13.24,0,0,0-3.41.41,9,9,0,0,0-2.64,1.13,5.22,5.22,0,0,0-1.7,1.75,4.45,4.45,0,0,0-.6,2.28,5.83,5.83,0,0,0,.48,2.35,5.52,5.52,0,0,0,1.34,1.9,6.38,6.38,0,0,0,2,1.25A6.89,6.89,0,0,0,390.83,662.64Z" transform="translate(261.24 179.35)"/><path d="M410.17,629h2.45v30.1a3,3,0,0,0,.79,2.21,2.9,2.9,0,0,0,2.18.82,8.17,8.17,0,0,0,1.27-.12,6.77,6.77,0,0,0,1.37-.36l.48,1.92a10,10,0,0,1-2,.55,11.86,11.86,0,0,1-2.06.22,4.38,4.38,0,0,1-3.24-1.22,4.44,4.44,0,0,1-1.22-3.29Z" transform="translate(261.24 179.35)"/></g></svg>