<?xml version="1.0" encoding="utf-8"?>
<!-- Generator: Adobe Illustrator 18.1.1, SVG Export Plug-In . SVG Version: 6.00 Build 0)  -->
<svg version="1.1" id="Layer_1" xmlns="http://www.w3.org/2000/svg" xmlns:xlink="http://www.w3.org/1999/xlink" x="0px" y="0px"
	 viewBox="0 0 264.6 258" enable-background="new 0 0 264.6 258" xml:space="preserve">
<rect x="1.9" y="2.7" fill="none" stroke="#010101" stroke-width="2" stroke-miterlimit="10" width="260.8" height="254.5"/>
<g>
	<rect x="1.9" y="44" fill="none" width="261.6" height="156.4"/>
	<path fill="#010101" d="M125.5,84.3c0-2.1,0.8-3.8,2.3-5.2c1.5-1.4,3.2-2.1,5-2.1c1.8,0,3.5,0.7,4.9,2.1c1.5,1.4,2.2,3.1,2.2,5.2
		c0,2.2-0.7,4-2.2,5.3c-1.5,1.3-3.1,2-4.9,2c-1.8,0-3.5-0.7-5-2C126.3,88.3,125.5,86.5,125.5,84.3z M137.7,183.8h-10v-73h10V183.8z"
		/>
</g>
<circle fill="none" stroke="#000000" stroke-width="2" stroke-miterlimit="10" cx="132.3" cy="130" r="77.3"/>
<circle cx="218.3" cy="40.2" r="15.2"/>
<g>
</g>
<g>
</g>
<g>
</g>
<g>
</g>
<g>
</g>
<g>
</g>
</svg>
